<mxfile host="app.diagrams.net" modified="2023-11-15T09:43:16.250Z" agent="Mozilla/5.0 (Windows NT 10.0; Win64; x64) AppleWebKit/537.36 (KHTML, like Gecko) Chrome/119.0.0.0 Safari/537.36" etag="Wan4udj9uwrBJoD_6hSL" version="22.1.1" type="device">
  <diagram name="Page-1" id="9B0QZFnmjTipt_VHHiNH">
    <mxGraphModel dx="2093" dy="988" grid="1" gridSize="10" guides="1" tooltips="1" connect="1" arrows="1" fold="1" page="1" pageScale="1" pageWidth="827" pageHeight="1169" math="0" shadow="0">
      <root>
        <mxCell id="0" />
        <mxCell id="1" parent="0" />
        <mxCell id="RQ3Hlt0v6SMooDilwXSW-1" value="Start" style="ellipse;whiteSpace=wrap;html=1;" vertex="1" parent="1">
          <mxGeometry x="440" y="50" width="120" height="80" as="geometry" />
        </mxCell>
        <mxCell id="RQ3Hlt0v6SMooDilwXSW-2" value="" style="endArrow=classic;html=1;rounded=0;exitX=0.5;exitY=1;exitDx=0;exitDy=0;" edge="1" parent="1" source="RQ3Hlt0v6SMooDilwXSW-1">
          <mxGeometry width="50" height="50" relative="1" as="geometry">
            <mxPoint x="480" y="430" as="sourcePoint" />
            <mxPoint x="500" y="170" as="targetPoint" />
          </mxGeometry>
        </mxCell>
        <mxCell id="RQ3Hlt0v6SMooDilwXSW-3" value="Welcome Message" style="rounded=0;whiteSpace=wrap;html=1;" vertex="1" parent="1">
          <mxGeometry x="430" y="170" width="140" height="60" as="geometry" />
        </mxCell>
        <mxCell id="RQ3Hlt0v6SMooDilwXSW-4" value="" style="endArrow=classic;html=1;rounded=0;exitX=0.5;exitY=1;exitDx=0;exitDy=0;" edge="1" parent="1" source="RQ3Hlt0v6SMooDilwXSW-3">
          <mxGeometry width="50" height="50" relative="1" as="geometry">
            <mxPoint x="480" y="430" as="sourcePoint" />
            <mxPoint x="500" y="280" as="targetPoint" />
          </mxGeometry>
        </mxCell>
        <mxCell id="RQ3Hlt0v6SMooDilwXSW-6" value="Menu (Select a Choice)" style="shape=parallelogram;perimeter=parallelogramPerimeter;whiteSpace=wrap;html=1;fixedSize=1;" vertex="1" parent="1">
          <mxGeometry x="415" y="280" width="170" height="60" as="geometry" />
        </mxCell>
        <mxCell id="RQ3Hlt0v6SMooDilwXSW-7" value="" style="endArrow=classic;html=1;rounded=0;exitX=0.5;exitY=1;exitDx=0;exitDy=0;" edge="1" parent="1" source="RQ3Hlt0v6SMooDilwXSW-6" target="RQ3Hlt0v6SMooDilwXSW-32">
          <mxGeometry width="50" height="50" relative="1" as="geometry">
            <mxPoint x="480" y="630" as="sourcePoint" />
            <mxPoint x="500" y="400" as="targetPoint" />
          </mxGeometry>
        </mxCell>
        <mxCell id="RQ3Hlt0v6SMooDilwXSW-16" style="edgeStyle=orthogonalEdgeStyle;rounded=0;orthogonalLoop=1;jettySize=auto;html=1;entryX=0;entryY=0.5;entryDx=0;entryDy=0;" edge="1" parent="1" source="RQ3Hlt0v6SMooDilwXSW-8" target="RQ3Hlt0v6SMooDilwXSW-15">
          <mxGeometry relative="1" as="geometry" />
        </mxCell>
        <mxCell id="RQ3Hlt0v6SMooDilwXSW-54" style="edgeStyle=orthogonalEdgeStyle;rounded=0;orthogonalLoop=1;jettySize=auto;html=1;entryX=1;entryY=0.5;entryDx=0;entryDy=0;" edge="1" parent="1" source="RQ3Hlt0v6SMooDilwXSW-8" target="RQ3Hlt0v6SMooDilwXSW-10">
          <mxGeometry relative="1" as="geometry" />
        </mxCell>
        <mxCell id="RQ3Hlt0v6SMooDilwXSW-8" value="Choice = Operation" style="rhombus;whiteSpace=wrap;html=1;" vertex="1" parent="1">
          <mxGeometry x="433.75" y="530" width="132.5" height="120" as="geometry" />
        </mxCell>
        <mxCell id="RQ3Hlt0v6SMooDilwXSW-20" value="" style="edgeStyle=orthogonalEdgeStyle;rounded=0;orthogonalLoop=1;jettySize=auto;html=1;" edge="1" parent="1" source="RQ3Hlt0v6SMooDilwXSW-10" target="RQ3Hlt0v6SMooDilwXSW-19">
          <mxGeometry relative="1" as="geometry" />
        </mxCell>
        <mxCell id="RQ3Hlt0v6SMooDilwXSW-10" value="Display Chosen &lt;br&gt;Operation" style="shape=parallelogram;perimeter=parallelogramPerimeter;whiteSpace=wrap;html=1;fixedSize=1;" vertex="1" parent="1">
          <mxGeometry x="170" y="560" width="160" height="60" as="geometry" />
        </mxCell>
        <mxCell id="RQ3Hlt0v6SMooDilwXSW-12" value="YES" style="text;html=1;align=center;verticalAlign=middle;resizable=0;points=[];autosize=1;strokeColor=none;fillColor=none;" vertex="1" parent="1">
          <mxGeometry x="343.75" y="540" width="50" height="30" as="geometry" />
        </mxCell>
        <mxCell id="RQ3Hlt0v6SMooDilwXSW-13" value="NO" style="text;html=1;align=center;verticalAlign=middle;resizable=0;points=[];autosize=1;strokeColor=none;fillColor=none;" vertex="1" parent="1">
          <mxGeometry x="566.25" y="540" width="40" height="30" as="geometry" />
        </mxCell>
        <mxCell id="RQ3Hlt0v6SMooDilwXSW-15" value="Display &lt;br&gt;Exit Message" style="shape=parallelogram;perimeter=parallelogramPerimeter;whiteSpace=wrap;html=1;fixedSize=1;" vertex="1" parent="1">
          <mxGeometry x="620" y="560" width="150" height="60" as="geometry" />
        </mxCell>
        <mxCell id="RQ3Hlt0v6SMooDilwXSW-26" value="" style="edgeStyle=orthogonalEdgeStyle;rounded=0;orthogonalLoop=1;jettySize=auto;html=1;" edge="1" parent="1" source="RQ3Hlt0v6SMooDilwXSW-19" target="RQ3Hlt0v6SMooDilwXSW-25">
          <mxGeometry relative="1" as="geometry" />
        </mxCell>
        <mxCell id="RQ3Hlt0v6SMooDilwXSW-19" value="Input (Two) Numbers" style="shape=parallelogram;perimeter=parallelogramPerimeter;whiteSpace=wrap;html=1;fixedSize=1;" vertex="1" parent="1">
          <mxGeometry x="171.25" y="670" width="157.5" height="60" as="geometry" />
        </mxCell>
        <mxCell id="RQ3Hlt0v6SMooDilwXSW-24" value="" style="edgeStyle=orthogonalEdgeStyle;rounded=0;orthogonalLoop=1;jettySize=auto;html=1;" edge="1" parent="1" source="RQ3Hlt0v6SMooDilwXSW-21">
          <mxGeometry relative="1" as="geometry">
            <mxPoint x="90" y="925" as="targetPoint" />
          </mxGeometry>
        </mxCell>
        <mxCell id="RQ3Hlt0v6SMooDilwXSW-21" value="Perform the Operation" style="whiteSpace=wrap;html=1;" vertex="1" parent="1">
          <mxGeometry x="30" y="800" width="120" height="60" as="geometry" />
        </mxCell>
        <mxCell id="RQ3Hlt0v6SMooDilwXSW-44" style="edgeStyle=orthogonalEdgeStyle;rounded=0;orthogonalLoop=1;jettySize=auto;html=1;exitX=1;exitY=0.5;exitDx=0;exitDy=0;" edge="1" parent="1" source="RQ3Hlt0v6SMooDilwXSW-51" target="RQ3Hlt0v6SMooDilwXSW-41">
          <mxGeometry relative="1" as="geometry">
            <mxPoint x="150" y="955" as="sourcePoint" />
          </mxGeometry>
        </mxCell>
        <mxCell id="RQ3Hlt0v6SMooDilwXSW-27" value="" style="edgeStyle=orthogonalEdgeStyle;rounded=0;orthogonalLoop=1;jettySize=auto;html=1;" edge="1" parent="1" source="RQ3Hlt0v6SMooDilwXSW-25" target="RQ3Hlt0v6SMooDilwXSW-21">
          <mxGeometry relative="1" as="geometry" />
        </mxCell>
        <mxCell id="RQ3Hlt0v6SMooDilwXSW-29" value="" style="edgeStyle=orthogonalEdgeStyle;rounded=0;orthogonalLoop=1;jettySize=auto;html=1;" edge="1" parent="1" source="RQ3Hlt0v6SMooDilwXSW-25" target="RQ3Hlt0v6SMooDilwXSW-28">
          <mxGeometry relative="1" as="geometry" />
        </mxCell>
        <mxCell id="RQ3Hlt0v6SMooDilwXSW-25" value="Input = Valid" style="rhombus;whiteSpace=wrap;html=1;" vertex="1" parent="1">
          <mxGeometry x="195" y="780" width="110" height="100" as="geometry" />
        </mxCell>
        <mxCell id="RQ3Hlt0v6SMooDilwXSW-42" value="" style="edgeStyle=orthogonalEdgeStyle;rounded=0;orthogonalLoop=1;jettySize=auto;html=1;" edge="1" parent="1" source="RQ3Hlt0v6SMooDilwXSW-28" target="RQ3Hlt0v6SMooDilwXSW-41">
          <mxGeometry relative="1" as="geometry" />
        </mxCell>
        <mxCell id="RQ3Hlt0v6SMooDilwXSW-28" value="Display&lt;br&gt;Error Message" style="shape=parallelogram;perimeter=parallelogramPerimeter;whiteSpace=wrap;html=1;fixedSize=1;" vertex="1" parent="1">
          <mxGeometry x="340" y="800" width="120" height="60" as="geometry" />
        </mxCell>
        <mxCell id="RQ3Hlt0v6SMooDilwXSW-30" value="NO" style="text;html=1;align=center;verticalAlign=middle;resizable=0;points=[];autosize=1;strokeColor=none;fillColor=none;" vertex="1" parent="1">
          <mxGeometry x="305" y="788" width="40" height="30" as="geometry" />
        </mxCell>
        <mxCell id="RQ3Hlt0v6SMooDilwXSW-31" value="YES" style="text;html=1;align=center;verticalAlign=middle;resizable=0;points=[];autosize=1;strokeColor=none;fillColor=none;" vertex="1" parent="1">
          <mxGeometry x="155" y="788" width="50" height="30" as="geometry" />
        </mxCell>
        <mxCell id="RQ3Hlt0v6SMooDilwXSW-33" style="edgeStyle=orthogonalEdgeStyle;rounded=0;orthogonalLoop=1;jettySize=auto;html=1;entryX=0.5;entryY=0;entryDx=0;entryDy=0;" edge="1" parent="1" source="RQ3Hlt0v6SMooDilwXSW-32" target="RQ3Hlt0v6SMooDilwXSW-8">
          <mxGeometry relative="1" as="geometry" />
        </mxCell>
        <mxCell id="RQ3Hlt0v6SMooDilwXSW-32" value="Repeat Menu&lt;br&gt;until &lt;br&gt;Exit is Chosen" style="rhombus;whiteSpace=wrap;html=1;" vertex="1" parent="1">
          <mxGeometry x="430" y="380" width="142.5" height="120" as="geometry" />
        </mxCell>
        <mxCell id="RQ3Hlt0v6SMooDilwXSW-35" value="End" style="ellipse;whiteSpace=wrap;html=1;" vertex="1" parent="1">
          <mxGeometry x="440" y="1030" width="120" height="80" as="geometry" />
        </mxCell>
        <mxCell id="RQ3Hlt0v6SMooDilwXSW-37" style="edgeStyle=orthogonalEdgeStyle;rounded=0;orthogonalLoop=1;jettySize=auto;html=1;entryX=1;entryY=0.5;entryDx=0;entryDy=0;" edge="1" parent="1" source="RQ3Hlt0v6SMooDilwXSW-15" target="RQ3Hlt0v6SMooDilwXSW-35">
          <mxGeometry relative="1" as="geometry">
            <mxPoint x="562" y="1082" as="targetPoint" />
            <Array as="points">
              <mxPoint x="690" y="1070" />
            </Array>
          </mxGeometry>
        </mxCell>
        <mxCell id="RQ3Hlt0v6SMooDilwXSW-41" value="Repeat Menu&lt;br&gt;until&lt;br&gt;Exit is Chosen" style="rhombus;whiteSpace=wrap;html=1;" vertex="1" parent="1">
          <mxGeometry x="331.87" y="900" width="136.25" height="125" as="geometry" />
        </mxCell>
        <mxCell id="RQ3Hlt0v6SMooDilwXSW-48" value="" style="endArrow=classic;html=1;rounded=0;exitX=0.5;exitY=1;exitDx=0;exitDy=0;" edge="1" parent="1" source="RQ3Hlt0v6SMooDilwXSW-41">
          <mxGeometry width="50" height="50" relative="1" as="geometry">
            <mxPoint x="510" y="940" as="sourcePoint" />
            <mxPoint x="440" y="1070" as="targetPoint" />
            <Array as="points">
              <mxPoint x="400" y="1070" />
            </Array>
          </mxGeometry>
        </mxCell>
        <mxCell id="RQ3Hlt0v6SMooDilwXSW-49" value="Shairami Velasquez, PHMAN19" style="text;html=1;align=center;verticalAlign=middle;resizable=0;points=[];autosize=1;strokeColor=none;fillColor=none;" vertex="1" parent="1">
          <mxGeometry x="5" y="1130" width="190" height="30" as="geometry" />
        </mxCell>
        <mxCell id="RQ3Hlt0v6SMooDilwXSW-50" value="SIMPLE CALCULTATOR FLOW CHART" style="text;html=1;align=center;verticalAlign=middle;resizable=0;points=[];autosize=1;strokeColor=none;fillColor=none;" vertex="1" parent="1">
          <mxGeometry x="60" y="40" width="240" height="30" as="geometry" />
        </mxCell>
        <mxCell id="RQ3Hlt0v6SMooDilwXSW-51" value="Display&lt;br&gt;the Result" style="shape=parallelogram;perimeter=parallelogramPerimeter;whiteSpace=wrap;html=1;fixedSize=1;" vertex="1" parent="1">
          <mxGeometry x="27.5" y="930" width="125" height="65" as="geometry" />
        </mxCell>
      </root>
    </mxGraphModel>
  </diagram>
</mxfile>
